<?xml version="1.0" encoding="utf-8"?>
<!-- Generator: Adobe Illustrator 16.0.0, SVG Export Plug-In . SVG Version: 6.00 Build 0)  -->
<!DOCTYPE svg PUBLIC "-//W3C//DTD SVG 1.1//EN" "http://www.w3.org/Graphics/SVG/1.1/DTD/svg11.dtd">
<svg version="1.1" id="Layer_1" xmlns="http://www.w3.org/2000/svg" xmlns:xlink="http://www.w3.org/1999/xlink" x="0px" y="0px"
	 width="500px" height="500px" viewBox="0 0 500 500" enable-background="new 0 0 500 500" xml:space="preserve">
<g>
	<path fill-rule="evenodd" clip-rule="evenodd" fill="#111E44" d="M119.92,125.95c-22.49,0.03-40.79,18.43-40.77,40.96
		c0.02,22.36,18.55,40.84,40.96,40.81c22.319-0.02,40.84-18.62,40.81-40.99C160.9,144.38,142.33,125.92,119.92,125.95z
		 M119.96,192.62c-14.02-0.03-25.63-11.56-25.71-25.56c-0.09-14.27,11.44-25.96,25.65-26.01c14.22-0.05,25.909,11.55,25.92,25.76
		C145.84,181.04,134.19,192.66,119.96,192.62z M394.06,125.93c-22.569-0.22-41.579,18.02-41.779,40.05
		c-0.19,22.36,18.1,41.62,39.66,41.76c23.399,0.14,41.989-17.87,42.159-40.87C434.25,145.02,415.78,126.12,394.06,125.93z
		 M392.78,192.6c-13.84,0-25.4-11.77-25.37-25.85c0.04-14.06,11.89-25.77,26-25.7c14.02,0.07,25.6,11.69,25.55,25.64
		C418.92,181.15,407.34,192.6,392.78,192.6z M123.46,252.76c-0.71-0.02-1.54-0.01-2.51-0.01c-1.94,0.01-3.431-0.02-4.59,0
		c-0.12,0.01-0.24,0.01-0.351,0.01c-4.13,0.181-3.359,1.46-3.43,10.021c-0.05,5.8,0.1,6.58,4.47,6.67
		c0.601,0.01,1.28,0.01,2.04,0.01c2.13-0.01,3.73,0.03,4.92-0.01c1.21-0.04,1.98-0.15,2.49-0.49c0.08-0.05,0.16-0.1,0.22-0.16
		c0.07-0.06,0.141-0.12,0.19-0.189c0.32-0.4,0.479-1,0.6-1.88c0-0.04,0-0.08,0.01-0.131c0.141-1.25,0.2-3.029,0.48-5.59v-1.62
		C128,253.62,127.83,252.84,123.46,252.76z M400.78,261.22c0-0.67,0.01-1.34,0-2.029c-0.021-6.4-0.04-6.44-6.471-6.4
		c-9.64,0.06-8.59-1.07-8.63,8.63c-0.05,8.08-0.01,8.09,6.84,8.08C401.67,269.49,400.72,270.15,400.78,261.22z"/>
	<path fill-rule="evenodd" clip-rule="evenodd" fill="#111E44" d="M339.19,329.61c-8.391-0.2-16.801,0.1-25.19-0.19
		c-4.12-0.14-5.34,1.21-5.33,5.32c0.14,43.359,0.08,86.66,0.08,130.02c0,1.761-0.06,3.24-0.1,5.24H294.02
		c-0.27-9-0.909-17.819-0.72-26.729c0.53-23.301,0.12-46.565,0.101-69.866c-0.011-20.439,0.21-40.887,0.27-61.337
		c0.021-3.38-0.27-6.753-0.41-10.133c-0.14-2.931,0.87-4.518,4.19-4.447c13.39,0.24,11.09-1.43,11.29,10.711
		c0.1,5.819,0.04,5.831,5.91,5.851c2.979,0.01,5.96,0.021,8.939,0.001c5.13-0.04,5.311-0.18,5.311-5.229
		c0.01-20.73,0.02-41.46,0-62.19c-0.011-10.29,0.14-20.6-0.16-30.89c-0.54-17.53-15.37-32.39-32.75-34.3
		c-5.91-0.65-9.57,1.08-13.36,5.13c-7.41,7.9-15.34,15.33-22.88,23.11c-2.31,2.39-3.82,2.53-6.21,0.06
		c-7.42-7.71-15.63-14.74-22.48-22.91c-5.229-6.24-11.09-6.27-17.729-4.71c-17.51,4.12-28.771,17.85-28.9,35.95
		c-0.239,30.48-0.05,60.97-0.14,91.46c-0.01,3.279,1.04,4.739,4.44,4.56c3.789-0.2,7.6-0.25,11.369-0.07
		c3.48,0.181,4.58-1.359,4.37-4.6c-0.17-2.43,0.12-4.89-0.01-7.32c-0.19-3.239,0.98-4.859,4.42-4.569c1.74,0.16,3.521,0.01,5.28,0
		c5.53-0.011,6.09,0.39,5.81,6.029c-0.899,18.15-0.31,36.311-0.399,54.46c-0.12,25.181-0.311,50.331,0.09,75.501
		c0.21,12.199-0.08,24.479-0.43,36.479h-14.65c-0.03-30-0.09-59.85-0.12-89.78c-0.01-15.319-0.08-30.604,0.09-45.915
		c0.04-3.73-1.18-4.968-4.91-4.877c-8.52,0.21-17.06-0.023-25.6,0.106c-3.36,0.05-4.83-0.907-4.81-4.607
		c0.13-36.83-0.07-73.679,0.199-110.518c0.181-23.48,21.74-45.97,45.2-47.84c15.95-1.26,15.95-1.259,27.14,9.931
		c4.021,4.02,8.181,7.92,12.051,12.09c2.04,2.18,3.399,2.3,5.54,0.06c6.47-6.74,13.229-13.23,19.76-19.91
		c1.93-1.99,4.01-2.83,6.8-2.89c17.66-0.43,33.22,4.39,45.25,17.97c7.91,8.93,12.33,19.39,12.68,31.36
		c0.83,26.94-0.02,53.89,0.12,80.85c0.04,9.479,0.2,18.96,0.49,28.43C344.58,328.36,343.04,329.71,339.19,329.61z"/>
	<path fill-rule="evenodd" clip-rule="evenodd" fill="#111E44" d="M153.62,228.16c-0.3,12.4,1.37,10.39-10.21,10.46
		c-16.93,0.12-33.851-0.06-50.771,0.06c-14.439,0.11-25.029,8.31-28.72,21.83c-0.72,2.67-0.65,5.37-0.66,8.061
		c-0.029,23.16,0.061,46.319-0.09,69.46c-0.03,3.89,1.11,5.279,5.061,5.08c5.939-0.29,11.909-0.08,17.869-0.07
		c5.631,0.01,5.721,0.07,5.721,5.61c0.01,28.97,0.01,57.899-0.021,86.88C91.78,447.04,91.65,459,91.59,470H76.94
		c-0.08-2-0.221-3.74-0.221-5.62c-0.02-33.819-0.08-67.624,0.03-101.454c0.01-3.641-1.13-4.998-4.99-4.898
		C63.93,358.228,56,357.97,48,357.9v-99.19c3-9.8,7.45-18.61,15.62-25.22c7.89-6.38,17.005-9.74,27.045-9.85
		c19.36-0.2,38.792-0.03,58.152-0.15C152.277,223.47,153.71,224.55,153.62,228.16z"/>
	<path fill-rule="evenodd" clip-rule="evenodd" fill="#111E44" d="M465,259.53v98.37c-8,0.069-15.555,0.399-23.245,0.119
		c-4.229-0.149-5.263,1.32-5.252,5.341c0.149,33.689,0.059,67.33,0.048,101.02c0,1.88-0.181,3.62-0.261,5.62h-14.63
		c-0.08-6-0.2-11.6-0.21-17.42c-0.01-34.55-0.01-69.074,0-103.625c0-5.92,0.02-5.918,5.78-5.928
		c5.829-0.01,11.659-0.233,17.479,0.087c4.03,0.21,5.41-0.978,5.37-5.197c-0.19-22.89-0.49-45.799,0.05-68.688
		c0.37-15.57-10.2-30.6-30.55-30.56c-18.16,0.02-36.311,0-54.47-0.02c-5.4-0.02-5.49-0.06-5.46-5.439
		c0.06-10.89-1.15-9.63,9.42-9.67c15.859-0.04,31.854,0.55,47.685-0.09C442.245,222.42,460,237.84,465,259.53z"/>
	<path fill-rule="evenodd" clip-rule="evenodd" fill="#111E44" d="M292.9,69.89C285.21,61.07,275.2,56,263.94,54H249.3
		c-1.3,0-2.59,0.63-3.899,0.96c-26.141,6.46-42.261,31.83-36.721,57.86c5.48,25.71,30.21,42.6,56.37,37.89
		c18.54-3.34,31.44-14.28,37.66-32.05C309.01,100.7,305.4,84.28,292.9,69.89z M256.43,136.48c-18.54-0.22-33.859-15.75-33.71-34.14
		c0.181-18.6,15.49-33.73,34.08-33.64c18.521,0.09,33.83,15.55,33.71,34.04C290.39,121.21,274.75,136.69,256.43,136.48z"/>
	<path fill-rule="evenodd" clip-rule="evenodd" fill="#111E44" d="M148.487,470.098c-0.078-6.633-0.223-13.254-0.234-19.887
		c-0.012-33.834,0.012-67.668,0.033-101.491c0-5.657,0.023-5.668,5.625-5.68c8.794-0.023,17.589,0.135,26.384-0.112
		c3.82-0.101,4.94,1.389,4.884,4.984c-0.212,12.079,1.031,10.083-10.127,10.185c-11.687,0.112-11.687,0.022-11.687,11.731
		c0,31.536,0,63.064-0.011,94.601c0,1.882-0.146,3.776-0.235,5.669C158.246,470.098,153.373,470.098,148.487,470.098z"/>
	<path fill-rule="evenodd" clip-rule="evenodd" fill="#111E44" d="M350.117,470.098c-0.08-5.68-0.236-11.359-0.236-17.039
		c-0.022-29.926-0.078-59.838,0.078-89.751c0.022-4.102-1.087-5.592-5.242-5.255c-4.168,0.323-8.393-0.021-12.582,0.09
		c-2.689,0.077-4.045-0.862-4.021-3.699c0.078-13.969-1.379-11.156,10.464-11.381c7.035-0.135,14.094,0.178,21.118-0.102
		c4.101-0.167,5.355,1.211,5.344,5.311c-0.135,35.471-0.057,70.929-0.078,106.4c0,5.143-0.135,10.283-0.213,15.426
		C359.874,470.098,354.99,470.098,350.117,470.098z"/>
	<path fill-rule="evenodd" clip-rule="evenodd" fill="#111E44" d="M264.14,354.31c0.061,36.971,0.03,73.891,0.021,110.881
		c0,1.609-0.141,2.81-0.22,4.81H249.3c-0.08-16-0.229-32.99-0.25-49.52c-0.04-23.42-0.01-46.836-0.01-70.266
		c0.01-5.24,0.21-5.508,5.51-5.418C265.59,344.978,264.13,343.7,264.14,354.31z"/>
	<path fill-rule="evenodd" clip-rule="evenodd" fill="#111E44" d="M112.715,470.098c-0.078-1.355-0.212-2.7-0.212-4.045
		c-0.012-30.449-0.012-60.89-0.012-91.331c0-5.556,0.046-5.622,5.714-5.6c10.677,0.055,9.333-1.065,9.355,9.253
		c0.056,28.681,0.033,57.362,0.021,86.054c0,1.882-0.146,3.776-0.224,5.669C122.474,470.098,117.601,470.098,112.715,470.098z"/>
	<path fill-rule="evenodd" clip-rule="evenodd" fill="#111E44" d="M385.89,470.098c-0.079-11.639-0.203-23.27-0.225-34.899
		c-0.034-20.289,0.102-40.59-0.078-60.879c-0.045-4.168,1.378-5.389,5.388-5.277c11.282,0.304,9.726-1.12,9.748,9.735
		c0.066,28.549,0.033,57.095,0.011,85.651c0,1.882-0.134,3.776-0.212,5.669C395.636,470.098,390.763,470.098,385.89,470.098z"/>
	<path fill-rule="evenodd" clip-rule="evenodd" fill="#111E44" d="M119.92,125.95c-22.49,0.03-40.79,18.43-40.77,40.96
		c0.02,22.36,18.55,40.84,40.96,40.81c22.319-0.02,40.84-18.62,40.81-40.99C160.9,144.38,142.33,125.92,119.92,125.95z
		 M119.96,192.62c-14.02-0.03-25.63-11.56-25.71-25.56c-0.09-14.27,11.44-25.96,25.65-26.01c14.22-0.05,25.909,11.55,25.92,25.76
		C145.84,181.04,134.19,192.66,119.96,192.62z"/>
	<path fill-rule="evenodd" clip-rule="evenodd" fill="#111E44" d="M394.06,125.93c-22.569-0.22-41.579,18.02-41.779,40.05
		c-0.19,22.36,18.1,41.62,39.66,41.76c23.399,0.14,41.989-17.87,42.159-40.87C434.25,145.02,415.78,126.12,394.06,125.93z
		 M392.78,192.6c-13.84,0-25.4-11.77-25.37-25.85c0.04-14.06,11.89-25.77,26-25.7c14.02,0.07,25.6,11.69,25.55,25.64
		C418.92,181.15,407.34,192.6,392.78,192.6z"/>
	<path fill-rule="evenodd" clip-rule="evenodd" fill="#111E44" d="M127.571,261.007c-0.067,9.221,0.975,8.427-8.481,8.448
		c-6.633,0.022-6.677,0-6.621-6.677c0.09-11.115-1.333-9.96,8.48-10.027c6.611-0.033,6.622,0,6.622,6.644
		C127.571,259.934,127.571,260.471,127.571,261.007z"/>
	<path fill-rule="evenodd" clip-rule="evenodd" fill="#111E44" d="M400.778,261.221c-0.056,8.93,0.896,8.268-8.258,8.278
		c-6.855,0.014-6.89,0-6.845-8.076c0.045-9.702-1.008-8.571,8.639-8.637c6.43-0.035,6.441,0,6.464,6.408
		C400.789,259.876,400.778,260.55,400.778,261.221z"/>
	<path fill-rule="evenodd" clip-rule="evenodd" fill="#111E44" d="M256.02,240.24c-7.029,0.01-7.029,0-6.979-7.46
		c0.07-10.19-1.261-9.19,8.399-9.24c6.611-0.03,6.561,0,6.561,6.65v1.61C264,240.98,265.01,240.2,256.02,240.24z"/>
	<path fill-rule="evenodd" clip-rule="evenodd" fill="#111E44" d="M255.279,271.83c-6.26,0.06-6.279,0.06-6.279-6.23v-2.029
		c0-9.58-0.93-8.261,8.5-8.4c6.721-0.1,6.779-0.04,6.65,6.92C263.961,272.58,265.77,271.73,255.279,271.83z"/>
</g>
</svg>
