<svg id="Layer_1" data-name="Layer 1" xmlns="http://www.w3.org/2000/svg" viewBox="0 0 1620 378"><defs><style>.cls-1{fill:#27856b;}.cls-2{fill:#111e44;}.cls-3{fill:#f89939;}</style></defs><path class="cls-1" d="M527.13,84.53v5L501.79,92V86.52c0-11.93-4.47-17.39-13.66-17.39-7.7,0-13.17,4.22-13.17,14.16V87c0,9.69,5,17.64,22.11,33.29,23.35,21.61,31.3,35.77,31.3,55.89v8.44c0,25.59-16.15,39-40.24,39-24.34,0-40.74-14.16-40.74-39.74V172.46L472.73,170V181.9c0,11.68,5.46,17.39,14.9,17.39,7.95,0,14.41-4.22,14.41-16.64v-5.47c0-10.93-5-18.88-22.11-34.52C456.58,121,448.63,106.89,448.63,88V83.79c0-25.59,14.91-39,39.25-39S527.13,59,527.13,84.53Z"/><path class="cls-1" d="M628.47,88.75v90.92c0,27.32-16.14,44-42.47,44s-42.48-16.64-42.48-44V88.75c0-27.32,16.15-44,42.48-44S628.47,61.43,628.47,88.75ZM569.85,89v90.42c0,12.91,5.71,19.87,16.15,19.87s16.14-7,16.14-19.87V89c0-12.92-5.71-19.87-16.14-19.87S569.85,76.08,569.85,89Z"/><path class="cls-1" d="M724.35,196.31v24.84h-70.3V47.27h26.33v149Z"/><path class="cls-1" d="M798.62,221.15l-5.71-39.5H763.85l-5.72,39.5H731.8L761.86,47.27h33.53l30.06,173.88Zm-31.3-63.34h22.11L778.75,84.53H778Z"/><path class="cls-1" d="M880.34,147.62H868.17v73.53H841.84V47.27h38c28.32,0,43.72,15.4,43.72,44v12.42c0,18.38-6.46,31.3-18.63,38.25L929,221.15H901.21Zm-12.17-24.34h10.68c12.67,0,18.39-6.71,18.39-21.36V93c0-14.66-5.72-21.37-18.39-21.37H868.17Z"/><path class="cls-1" d="M1018,71.61V120.8h38.51v24.34H1018v51.67h47.7v24.34h-74V47.27h74V71.61Z"/><path class="cls-1" d="M1147.86,221.15l-34.52-115.26h-.5V221.15H1088V47.27h29.31l31,103.58h.5V47.27h24.84V221.15Z"/><path class="cls-1" d="M1228.34,71.61V120.8h38.51v24.34h-38.51v51.67H1276v24.34h-74V47.27h74V71.61Z"/><path class="cls-1" d="M1334.41,147.62h-12.17v73.53h-26.33V47.27h38c28.32,0,43.72,15.4,43.72,44v12.42c0,18.38-6.46,31.3-18.63,38.25l24.09,79.24h-27.82Zm-12.17-24.34h10.68c12.66,0,18.38-6.71,18.38-21.36V93c0-14.66-5.72-21.37-18.38-21.37h-10.68Z"/><path class="cls-1" d="M1481.71,86.52V98.44l-25.34,1.24V89.25c0-13.91-5.21-20.12-15.4-20.12s-15.4,6.21-15.4,17.64v94.88c0,11.43,5,17.64,15.15,17.64s15.16-6.21,15.16-20.12V149.36H1441V125h40.74V181.9c0,26.33-15.15,41.73-41.48,41.73-26.08,0-41-15.4-41-41.73V86.52c0-26.33,14.91-41.73,41-41.73C1466.56,44.79,1481.71,60.19,1481.71,86.52Z"/><path class="cls-1" d="M1550.51,221.15h-26.33V142.41l-36.51-95.14h27.82l22.11,61.6h.49l21.12-61.6h27.32l-36,95.39Z"/><path class="cls-2" d="M472.23,290.32l11.4-21.92h6.53l-15.05,27.38v16.28h-5.76V295.78L454.3,268.4h6.59Z"/><path class="cls-2" d="M563.53,291.64a27,27,0,0,1-2.16,11.2,16.35,16.35,0,0,1-6.12,7.3,16.84,16.84,0,0,1-9.24,2.52,16.29,16.29,0,0,1-15.34-9.76A25.9,25.9,0,0,1,528.41,292v-3.15a26.7,26.7,0,0,1,2.19-11.13,17.22,17.22,0,0,1,24.6-7.42,16.34,16.34,0,0,1,6.17,7.35,27.13,27.13,0,0,1,2.16,11.2Zm-5.73-2.82q0-7.77-3.12-11.92a10.29,10.29,0,0,0-8.73-4.15,10.17,10.17,0,0,0-8.59,4.15q-3.14,4.16-3.22,11.53v3.21q0,7.53,3.16,11.83a11.09,11.09,0,0,0,17.35.24q3.06-4.06,3.15-11.65Z"/><path class="cls-2" d="M637.91,268.4v29.69a14,14,0,0,1-3.88,10.1q-3.85,3.93-10.46,4.41l-1.53.06q-7.15,0-11.42-3.87t-4.32-10.64V268.4H612V298q0,4.74,2.61,7.36T622,308q4.89,0,7.49-2.61c1.73-1.74,2.59-4.18,2.59-7.34V268.4Z"/><path class="cls-2" d="M698,294.4H687.76v17.66H682V268.4h14.46q7.38,0,11.35,3.36t4,9.77a11.76,11.76,0,0,1-2.2,7.11,13.2,13.2,0,0,1-6.13,4.53l10.25,18.53v.36h-6.18Zm-10.26-4.71h8.85a10,10,0,0,0,6.82-2.22,7.52,7.52,0,0,0,2.53-6,7.9,7.9,0,0,0-2.41-6.22q-2.41-2.16-7-2.19h-8.82Z"/><path class="cls-2" d="M817.9,292.6q-7.41-2.13-10.78-5.23a10,10,0,0,1-3.37-7.67,10.57,10.57,0,0,1,4.12-8.53q4.13-3.37,10.72-3.37a17.84,17.84,0,0,1,8,1.74,13.2,13.2,0,0,1,5.46,4.8A12.25,12.25,0,0,1,834,281h-5.79a8,8,0,0,0-2.52-6.24c-1.68-1.52-4.05-2.27-7.11-2.27a10.49,10.49,0,0,0-6.64,1.87,6.28,6.28,0,0,0-2.38,5.22,5.63,5.63,0,0,0,2.26,4.52q2.26,1.85,7.71,3.38a35.59,35.59,0,0,1,8.51,3.38,12.83,12.83,0,0,1,4.56,4.3A11,11,0,0,1,834.1,301a10.21,10.21,0,0,1-4.14,8.5q-4.14,3.19-11.07,3.19a20.45,20.45,0,0,1-8.39-1.72,14.16,14.16,0,0,1-6-4.73,11.5,11.5,0,0,1-2.11-6.8h5.79a7.52,7.52,0,0,0,2.92,6.25,12.3,12.3,0,0,0,7.81,2.29q4.56,0,7-1.86a6,6,0,0,0,2.43-5.06,5.94,5.94,0,0,0-2.25-5Q823.81,294.3,817.9,292.6Z"/><path class="cls-2" d="M882.27,307.35H903v4.71H876.48V268.4h5.79Z"/><path class="cls-2" d="M976.17,291.64a27,27,0,0,1-2.15,11.2,16.35,16.35,0,0,1-6.12,7.3,16.87,16.87,0,0,1-24.58-7.24A25.9,25.9,0,0,1,941.06,292v-3.15a26.7,26.7,0,0,1,2.19-11.13,16.17,16.17,0,0,1,15.35-9.95,16.91,16.91,0,0,1,9.25,2.53,16.34,16.34,0,0,1,6.17,7.35,27.13,27.13,0,0,1,2.15,11.2Zm-5.72-2.82q0-7.77-3.12-11.92a10.29,10.29,0,0,0-8.73-4.15A10.17,10.17,0,0,0,950,276.9q-3.13,4.16-3.22,11.53v3.21q0,7.53,3.16,11.83a11.09,11.09,0,0,0,17.35.24q3.06-4.06,3.15-11.65Z"/><path class="cls-2" d="M1052.06,306.33a13.33,13.33,0,0,1-6.2,4.76,25,25,0,0,1-9.25,1.57,17.91,17.91,0,0,1-9.47-2.5,16.74,16.74,0,0,1-6.41-7.12,24.61,24.61,0,0,1-2.32-10.71v-3.81q0-9.87,4.6-15.29T1036,267.8q6.84,0,11,3.49a15.21,15.21,0,0,1,5.1,9.91h-5.76q-1.62-8.68-10.32-8.69-5.79,0-8.77,4.06t-3,11.78v3.58q0,7.35,3.36,11.69a10.86,10.86,0,0,0,9.08,4.33,20.42,20.42,0,0,0,5.67-.71,8.76,8.76,0,0,0,4-2.43V295h-10.11v-4.71h15.84Z"/><path class="cls-2" d="M1120.77,300.64h-18.29l-4.11,11.42h-5.94l16.68-43.66h5l16.71,43.66h-5.91Zm-16.55-4.71h14.84l-7.43-20.42Z"/><path class="cls-2" d="M1205.29,312.06h-5.79l-22-33.65v33.65h-5.79V268.4h5.79l22,33.8V268.4h5.73Z"/><path class="cls-2" d="M1334.29,312.06h-5.79V291.88h-22v20.18h-5.75V268.4h5.75v18.77h22V268.4h5.79Z"/><path class="cls-2" d="M1404.21,291.88h-18.93v15.47h22v4.71h-27.74V268.4H1407v4.71h-21.69v14.06h18.93Z"/><path class="cls-2" d="M1465.45,294.4H1455.2v17.66h-5.79V268.4h14.45q7.38,0,11.36,3.36t4,9.77a11.76,11.76,0,0,1-2.21,7.11,13.1,13.1,0,0,1-6.13,4.53l10.26,18.53v.36h-6.18Zm-10.25-4.71H1464a10,10,0,0,0,6.83-2.22,7.52,7.52,0,0,0,2.53-6,7.9,7.9,0,0,0-2.41-6.22q-2.41-2.16-7-2.19h-8.81Z"/><path class="cls-2" d="M1546.94,291.88H1528v15.47h22v4.71h-27.74V268.4h27.44v4.71H1528v14.06h18.92Z"/><circle class="cls-3" cx="167.64" cy="176" r="142"/><polygon class="cls-2" points="156.13 215.6 249 216 189.18 319.65 99.63 319.65 156.13 215.6"/><polygon class="cls-2" points="264.19 215.6 354 216 297.25 319.65 207.7 319.65 264.19 215.6"/></svg>