<?xml version="1.0" encoding="utf-8"?>
<!-- Generator: Adobe Illustrator 16.0.0, SVG Export Plug-In . SVG Version: 6.00 Build 0)  -->
<!DOCTYPE svg PUBLIC "-//W3C//DTD SVG 1.1//EN" "http://www.w3.org/Graphics/SVG/1.1/DTD/svg11.dtd">
<svg version="1.1" id="Layer_1" xmlns="http://www.w3.org/2000/svg" xmlns:xlink="http://www.w3.org/1999/xlink" x="0px" y="0px"
	 width="500px" height="500px" viewBox="0 0 500 500" enable-background="new 0 0 500 500" xml:space="preserve">
<g>
	<g>
		<path fill="#111E44" d="M414.775,288.556l-2.168,1.172c-8.778-10.652-23.986-14.777-35.57-8.903
			c-0.039,0.019-0.083,0.04-0.122,0.062l-5.133,2.76c-12.526-10.613-30.373-12.223-44.606-4.028l-27.616,15.021h-36.757
			c-7.957-0.011-15.813-1.811-22.982-5.27l-5.057-2.44c-29.349-14.283-64.234-10.875-90.267,8.813
			c-0.122,0.094-0.236,0.183-0.351,0.287l-12.205,10.867c-4.616,4.097-10.068,7.137-15.979,8.903l-6.932-22.753
			c-0.71-2.315-2.843-3.896-5.262-3.896H44.733c-1.57,0-3.068,0.674-4.115,1.854c-1.039,1.18-1.53,2.745-1.337,4.309l19.678,161.359
			c0.337,2.753,2.678,4.828,5.455,4.828h88.549c1.746,0,3.384-0.824,4.416-2.226c1.04-1.398,1.352-3.208,0.843-4.871l-11.631-38.176
			l36.229-22.896c4.846-2.681,10.534-3.42,15.903-2.058c0.114,0.029,0.229,0.054,0.344,0.075l73.699,13.57
			c20.026,3.581,40.675,0.666,58.93-8.323c0.232-0.114,0.459-0.247,0.674-0.394l127.467-87.521c2.397-1.646,3.097-4.878,1.599-7.366
			C451.798,285.266,431.238,279.646,414.775,288.556L414.775,288.556z M382.063,290.599c6.698-3.358,15.136-0.605,20.523,4.538
			l-48.338,26.075l-2.842,1.495c-1.527-4.348-3.764-8.409-6.617-12.025L382.063,290.599z M332.499,289.237
			c0.043-0.025,0.09-0.051,0.129-0.075c8.817-5.098,19.71-4.993,28.431,0.269l-24.577,13.232
			c-4.685-3.419-10.032-5.824-15.699-7.067L332.499,289.237z M69.274,450.511L50.941,300.144h48.756l45.847,150.367H69.274z
			 M326.467,386.911c-16.051,7.814-34.165,10.33-51.735,7.187l-73.517-13.534c-8.086-1.996-16.628-0.842-23.89,3.237
			c-0.086,0.046-0.172,0.097-0.254,0.15l-33.817,21.376l-24.087-79.004c7.427-2.24,14.28-6.068,20.072-11.226l12.036-10.717
			c22.734-17.094,53.122-20.015,78.699-7.57l5.054,2.448c8.663,4.176,18.151,6.344,27.771,6.358h49.025
			c14.86,0.021,27.616,10.584,30.408,25.18l-35.534-1.606c-12.918-0.58-25.863,0.019-38.674,1.789
			c-2.979,0.44-5.047,3.2-4.639,6.189c0.416,2.986,3.158,5.083,6.147,4.695c12.147-1.677,24.42-2.243,36.671-1.691l41.817,1.893
			c0.082,0,0.165,0.003,0.247,0.003c3.032,0,5.495-2.458,5.495-5.498c0-0.885-0.036-1.767-0.09-2.642l5.734-3.024l60.593-32.678
			c9.566-5.18,21.419-3.28,28.893,4.631L326.467,386.911z M326.467,386.911"/>
	</g>
	<path fill="#111E44" d="M104.05,410.47c-9.55,0.011-17.29,7.75-17.3,17.3c0,9.561,7.74,17.301,17.3,17.301
		c9.561,0,17.3-7.74,17.3-17.301C121.35,418.22,113.61,410.47,104.05,410.47z M104.05,434.08c-3.479,0-6.31-2.82-6.31-6.311
		c0-3.479,2.83-6.3,6.31-6.31c3.49,0,6.311,2.82,6.311,6.31C110.36,431.26,107.54,434.08,104.05,434.08z"/>
	<path fill="#111E44" d="M250.5,38.5c-22.96,0-41.5,18.56-41.5,41.52v18.11c0,22.97,18.54,41.52,41.5,41.52S292,121.1,292,98.13
		V80.02C292,57.06,273.46,38.5,250.5,38.5z M281,98.13c0,16.91-13.61,30.56-30.51,30.56c-16.891,0-30.49-13.65-30.49-30.56V80.02
		c0-16.9,13.6-30.56,30.49-30.56c16.899,0,30.51,13.66,30.51,30.56V98.13z"/>
	<path fill="#111E44" d="M382.48,152.68c-2.931-0.22-4.41,1.63-5.631,3.13c-4.93,6.02-12.35,9.43-20.119,9.24
		c-7.78-0.19-15.03-3.96-19.65-10.22c-1.07-1.44-2.78-2.27-4.57-2.23c-7.14,0.17-14.1,2.2-20.21,5.9
		c-8.14-9.46-19.77-15.24-32.24-15.99c-2.829-0.11-4.27,1.61-5.67,3.3c-5.77,7.06-14.489,11.07-23.62,10.84
		c-9.119-0.22-17.64-4.64-23.069-11.98c-1.061-1.44-2.76-2.28-4.55-2.23c-12.061,0.28-23.521,5.28-31.92,13.92
		c-0.7,0.71-1.36,1.45-1.99,2.19c-5.681-3.45-12.11-5.47-18.74-5.88c-2.93-0.21-4.44,1.64-5.66,3.14
		c-4.93,6.02-12.359,9.42-20.14,9.23c-7.771-0.19-15.03-3.95-19.65-10.21c-1.069-1.44-2.95-2.27-4.74-2.23
		C97.98,153.17,80,171.43,80,193.76v35.67c0,3.04,2.82,5.57,5.86,5.57H178v12.54c0,3.04,2.52,5.46,5.56,5.46H197v-11h-8v-53.32
		c0-18.06,13.79-33.15,31.75-35.08c7.69,8.9,18.87,14.03,30.63,14.06c11.76,0.02,22.7-5.05,30.43-13.91
		c17.44,2.41,30.19,17.31,30.19,34.93V242h-98v11h104.04c3.04,0,4.96-2.42,4.96-5.46V235h92.6c3.04,0,5.4-2.53,5.4-5.57v-35.67
		C421,172.04,404.16,154.06,382.48,152.68z M178,188.68V224H91v-30.24c0-15.32,11.75-28.17,26.98-29.98
		c6.85,7.77,16.8,12.24,27.149,12.27c10.38,0.02,20.3-4.39,27.2-12.14c3.78,0.57,7.41,1.86,10.71,3.79
		C179.72,174.2,178,181.39,178,188.68z M410,224h-87v-35.32c0-7.32-1.47-14.53-4.81-21.04c3.59-2.1,7.72-3.41,11.85-3.87
		c6.85,7.78,16.78,12.25,27.15,12.28c10.369,0.02,20.229-4.39,27.119-12.14c14.771,2.23,25.69,14.91,25.69,29.85V224z"/>
	<path fill="#111E44" d="M356.01,61.45c-20.55,0-37.01,16.66-37.01,37.2v15.85c0,20.55,16.46,37.21,37.01,37.21
		c20.54,0,36.99-16.66,36.99-37.21V98.65C393,78.11,376.55,61.45,356.01,61.45z M382,114.5c0,14.48-11.53,26.21-26,26.21
		c-14.48,0-26-11.73-26-26.21V98.65c0-14.47,11.52-26.21,26-26.21c14.47,0,26,11.74,26,26.21V114.5z"/>
	<path fill="#111E44" d="M144,61.45c-20.54,0-37,16.66-37,37.2v15.85c0,20.55,16.46,37.21,37,37.21c20.55,0,37-16.66,37-37.21V98.65
		C181,78.11,164.55,61.45,144,61.45z M170,114.5c0,14.48-11.52,26.21-26,26.21c-14.47,0-26-11.73-26-26.21V98.65
		c0-14.47,11.53-26.21,26-26.21c14.48,0,26,11.74,26,26.21V114.5z"/>
</g>
<path fill="#111E44" d="M208,252.083c0,0.507-0.447,0.917-1,0.917h-7c-0.553,0-1-0.41-1-0.917v-9.167c0-0.506,0.447-0.917,1-0.917h7
	c0.553,0,1,0.411,1,0.917V252.083z"/>
</svg>
