<?xml version="1.0" encoding="utf-8"?>
<!-- Generator: Adobe Illustrator 16.0.0, SVG Export Plug-In . SVG Version: 6.00 Build 0)  -->
<!DOCTYPE svg PUBLIC "-//W3C//DTD SVG 1.1//EN" "http://www.w3.org/Graphics/SVG/1.1/DTD/svg11.dtd">
<svg version="1.1" id="Layer_1" xmlns="http://www.w3.org/2000/svg" xmlns:xlink="http://www.w3.org/1999/xlink" x="0px" y="0px"
	 width="500px" height="500px" viewBox="0 0 500 500" enable-background="new 0 0 500 500" xml:space="preserve">
<g>
	<g>
		<path fill-rule="evenodd" clip-rule="evenodd" fill="#111E44" d="M275.718,236.434c0.504,7.86,0.705,15.746,0.94,23.624
			c0.15,4.731-0.093,9.479,0.218,14.194c0.269,3.918,3.321,6.661,6.484,6.46c2.92-0.193,5.528-2.911,5.932-6.393
			c0.185-1.552,0.108-3.146,0.117-4.731c0-8.113-0.269-16.246,0.059-24.354c0.63-15.654-4.152-29.257-14.404-41.048
			c-1.065-1.229-1.678-2.861-3.222-5.591c6.023,0,10.722,0.319,15.353-0.088c5.612-0.491,9.094,1.594,12.098,6.413
			c6.929,11.091,14.412,21.833,21.762,32.659c2.902,4.279,6.274,5.776,9.547,3.965c1.879-1.037,3.439-2.878,4.765-4.64
			c8.39-11.188,16.745-22.403,24.949-33.717c2.316-3.188,4.9-4.798,9.011-4.677c9.026,0.272,18.054,0.013,27.08,0.113
			c23.121,0.26,41.61,18.779,41.762,41.808c0.067,10.151-0.075,20.297,0.059,30.448c0.075,5.84,3.229,9.941,7.224,9.816
			c3.003-0.084,6.61-3.029,6.426-9.564c-0.285-10.587,0.252-21.211-0.234-31.794c-0.252-5.549-1.25-11.267-3.055-16.514
			c-7.718-22.462-29.479-37.688-53.355-37.81c-7.441-0.038-14.882,0.038-22.332-0.055c-1.627-0.017-3.263-0.528-4.773-0.789
			c0-1.132-0.143-1.64,0.025-2c0.386-0.802,0.83-1.624,1.418-2.286c10.227-11.498,13.078-25.42,13.121-40.206
			c0.066-26.615,0.041-53.234,0.008-79.853c-0.008-9.513-2.047-11.56-11.477-11.573c-18.725-0.029-37.449,0.251-56.174-0.071
			c-22.5-0.386-38.851,18.767-38.28,37.944c0.57,19.157,0.302,38.347,0.059,57.517c-0.167,13.188,3.649,24.824,11.753,35.164
			c1.142,1.455,1.889,3.221,2.953,5.08c-7.365,1.644-80.591,1.459-86.564-0.29c1.644-2.332,3.074-4.484,4.622-6.548
			c6.711-8.947,10.42-19.136,10.541-30.163c0.327-29.551,0.155-59.098,0.093-88.649c-0.017-7.827-2.27-9.958-10.168-9.975
			c-18.947-0.046-37.902,0.227-56.846-0.08c-20.939-0.332-39.27,16.2-38.8,38.917c0.395,18.943,0.197,37.894,0.042,56.846
			c-0.109,12.919,3.905,24.328,11.585,34.593c1.133,1.514,2.047,3.2,3.574,5.608c-6.539,1.409-12.123,0.713-17.635,0.847
			c-10.029,0.235-19.836,1.737-28.745,6.519c-22.303,11.972-34.689,30.47-34.945,56.062c-0.319,31.581-0.084,63.158-0.079,94.735
			c0,1.358-0.072,2.718,0.066,4.06c0.461,4.598,2.207,6.41,6.725,6.947c1.56,0.184,3.154,0.167,4.73,0.167
			c38.578,0,77.152,0,115.729-0.008c1.8-0.009,3.629,0.017,5.399-0.277c3.615-0.587,5.486-2.626,5.57-5.713
			c0.075-2.944-1.851-5.755-4.954-6.451c-2.165-0.486-4.476-0.419-6.72-0.419c-22.336-0.034-44.669-0.018-67.005-0.025
			c-1.804,0-3.607-0.042-5.411-0.059c-3.255-0.025-5.071-1.535-5.109-4.916c-0.017-1.796-0.07-3.607-0.075-5.403
			c-0.009-12.634,0.017-25.269-0.034-37.902c-0.004-2.014-0.024-4.11-0.565-6.015c-0.802-2.828-2.911-4.773-5.936-4.631
			c-2.907,0.125-5.172,1.854-5.835,4.814c-0.482,2.174-0.537,4.472-0.545,6.721c-0.051,12.181-0.009,24.354-0.047,36.535
			c-0.008,2.256-0.138,4.504-0.381,6.736c-0.244,2.248-1.401,3.893-3.847,3.942c-4.735,0.084-9.472,0.093-14.203-0.009
			c-2.337-0.05-3.767-1.325-3.843-3.8c-0.05-1.577-0.088-3.154-0.088-4.731c-0.004-28.423,0.336-56.846-0.108-85.263
			c-0.34-21.665,16.757-42.902,37.798-46.606c9.219-1.624,18.846-0.848,28.268-1.473c4.605-0.306,7.55,1.368,10.021,5.214
			c6.212,9.682,12.643,19.22,19.198,28.67c2.551,3.674,3.771,7.42,3.691,11.942c-0.214,12.172-0.109,24.362-0.037,36.543
			c0.017,2.215,0.154,4.53,0.797,6.645c0.855,2.776,2.898,4.529,6.049,4.479c3.137-0.051,5.15-1.896,5.994-4.631
			c0.646-2.098,0.679-4.43,0.688-6.661c0.063-12.416,0.109-24.819-0.013-37.222c-0.033-3.536,0.726-6.59,2.882-9.438
			c7.89-10.436,15.764-20.885,23.456-31.464c2.253-3.1,4.929-4.148,8.628-4.064c8.34,0.185,16.691,0.143,25.038,0.055
			C256.2,198.359,274.502,217.269,275.718,236.434z M328.771,222.726c-5.243-3.96-13.885-16.913-15.729-23.725
			c10.737-0.738,21.241-0.436,33.146-0.176C340.953,208.431,334.938,215.628,328.771,222.726z M293.252,74.169
			c4.068-7.944,10.998-12.29,20.218-12.299c16.208-0.008,32.399-0.042,48.606,0.013c6.578,0.021,6.88,0.348,6.98,6.837
			c0.084,4.945,0.21,9.912-0.101,14.845c-0.747,11.955-10.067,21.296-21.896,21.48c-17.316,0.269-34.648,0.088-51.972,0.05
			c-1.309-0.004-2.609-0.394-4.488-0.696C289.082,94.043,288.353,83.733,293.252,74.169z M290.566,150.855
			c-0.41-8.758-0.771-17.533-0.763-26.304c0.009-5.029,0.965-5.742,6.183-5.776c14.874-0.092,29.757-0.197,44.631,0.021
			c8.07,0.118,15.671-1.166,22.869-4.862c1.157-0.595,2.475-0.864,3.884-1.342c0.68,0.788,0.948,0.943,0.956,1.116
			c1.066,13.678,1.938,27.408-0.536,40.981c-2.845,15.592-19.337,31.879-41.636,30.294
			C306.054,183.552,291.271,165.67,290.566,150.855z M130.101,75.797c3.326-8.284,10.172-13.553,19.309-13.762
			c17.811-0.407,35.637-0.109,53.456-0.071c0.859,0.004,1.72,0.344,3.519,0.721c0,8.301,0.663,16.216-0.172,23.972
			c-1.023,9.539-10.41,18.104-19.882,18.293c-18.264,0.369-36.54,0.122-54.812,0.083c-0.855,0-1.711-0.411-2.979-0.738
			C126.57,94.639,126.435,84.924,130.101,75.797z M167.535,223.263c-6.359-7.571-11.582-14.882-16.02-24.396
			c11.766-0.432,22.307-0.377,34.593-0.033C180.072,208.246,174.451,215.788,167.535,223.263z M172.945,184.777
			c-17.457,2.244-33.682-6.43-41.283-22.072c-4.434-9.131-5.922-33.746-2.387-43.611c2.186-0.113,4.614-0.335,7.043-0.344
			c13.98-0.033,27.961-0.185,41.938,0.046c8.063,0.13,15.688-1.074,22.887-4.815c1.309-0.684,2.868-0.881,4.182-1.263
			c0.516,0.713,0.994,1.07,0.994,1.426c0.004,12.835,1.115,25.805-0.353,38.478C204.023,169.4,189.288,182.676,172.945,184.777z
			 M450.952,317.725c-3.456-13.406-13.993-21.51-28.238-21.678c-10.369-0.125-20.738,0.034-31.107-0.084
			c-4.781-0.059-5.536-0.813-5.821-5.453c-0.244-3.825-0.025-7.667-0.202-11.492c-0.419-9.43-6.694-16.452-16.115-16.729
			c-14.64-0.437-29.312-0.42-43.951,0c-8.717,0.234-15.437,7.566-16.015,16.309c-0.235,3.599-0.034,7.215-0.168,10.822
			c-0.227,5.931-0.78,6.51-6.787,6.568c-9.916,0.084-19.832-0.051-29.757,0.042c-17.303,0.185-29.472,12.131-29.547,29.379
			c-0.134,32.231-0.117,64.472-0.004,96.711c0.059,17.718,12.123,29.614,29.845,29.656c24.563,0.059,49.144,0.017,73.716,0.017
			c25.479,0,50.948,0.093,76.435-0.033c16.686-0.076,28.473-11.896,28.531-28.633c0.109-32.919,0.042-65.83-0.008-98.741
			C451.758,322.154,451.506,319.873,450.952,317.725z M336.271,274.965c8.775,0,17.542-0.092,26.309,0.042
			c8.884,0.151,10.252,1.594,10.353,10.168c0.117,10.788,0.084,10.83-10.671,10.839h-14.841c0-0.009,0-0.017,0-0.017
			c-6.519,0-13.046,0.101-19.563-0.034c-4.371-0.101-5.319-0.855-5.537-5.008C321.447,274.495,323.428,274.965,336.271,274.965z
			 M272.496,309.504c17.794,0.419,35.604,0.117,53.406,0.117c31.996,0,63.993,0.017,95.989-0.025
			c3.909-0.008,7.659,0.294,10.873,2.811c2.952,2.332,5.167,5.293,5.251,9.077c0.201,9.647,0.067,19.295,0.067,29.815
			c-3.355,0.419-5.771,0.973-8.188,0.981c-18.021,0.075-36.058,0.009-54.077,0.059c-4.295,0.017-8.021-0.353-9.514-5.453
			c-0.755-2.584-3.221-3.632-5.939-3.632c-8.557-0.009-17.122-0.025-25.688,0.008c-3.004,0.008-5.369,1.325-6.149,4.304
			c-1.015,3.876-3.75,4.724-7.156,4.724c-19.152,0-38.306,0.1-57.458-0.06c-6.334-0.05-7.009-0.964-7.08-7.071
			c-0.08-6.762,0.302-13.541-0.101-20.269C256.264,317.012,262.446,309.269,272.496,309.504z M353.914,367.96
			c-0.486,3.666-2.869,6.073-5.855,6.333c-3.18,0.277-5.965-2.131-6.804-6.099c-0.319-1.51-0.277-3.096-0.319-3.657
			c0.034-7.542,1.645-9.119,7.819-8.582c4.026,0.344,5.017,1.25,5.285,5.326C354.191,363.496,354.207,365.762,353.914,367.96z
			 M422.396,438.328c-25.034-0.453-50.075-0.15-75.117-0.15c-24.589,0-49.187-0.353-73.767,0.159
			c-10.78,0.227-17.193-6.669-16.846-17.072c0.545-16.225,0.105-32.483,0.164-48.725c0.024-6.728,0.536-7.257,7.411-7.282
			c18.726-0.075,37.45-0.066,56.175,0c6.477,0.018,6.711,0.336,7.979,6.561c1.904,9.396,9.807,16.158,18.992,16.259
			c9.069,0.101,17.056-6.511,19.271-15.956c1.569-6.67,1.678-6.854,8.515-6.88c18.498-0.05,36.997-0.059,55.495,0.017
			c7.181,0.018,7.483,0.387,7.5,7.811c0.033,16.469-0.353,32.945,0.151,49.396C438.604,431.524,432.043,438.496,422.396,438.328z
			 M213.385,340.778c-3.321,0.185-6.627,3.591-6.476,6.661c0.159,3.121,3.637,5.923,7.181,5.771c3.394-0.15,6.036-2.852,5.931-6.073
			C219.913,343.832,216.544,340.603,213.385,340.778z"/>
	</g>
</g>
</svg>
